{"title":"Zumbo's Just Desserts - S01E01 - Reflective Dessert","uid":15628590,"size":509102115,"categoryP":"video","categoryS":"tv_shows","magnet":"?xt=urn:btih:4584b2af90f8e3a740b802b1391157d3358b864b&amp;dn=Zumbo%27s+Just+Desserts+-+S01E01+-+Reflective+Dessert&amp;tr=udp%3A%2F%2Ftracker.leechers-paradise.org%3A6969&amp;tr=udp%3A%2F%2Fzer0day.ch%3A1337&amp;tr=udp%3A%2F%2Fopen.demonii.com%3A1337&amp;tr=udp%3A%2F%2Ftracker.coppersurfer.tk%3A6969&amp;tr=udp%3A%2F%2Fexodus.desync.com%3A6969","seeders":12,"leechers":2,"uploader":"Bullrout","files":1,"time":1471943251,"description":"Zumbo's Just Desserts - S01E01 - Reflective Dessert\r\n\r\nAustralia's most celebrated patissier Adriano Zumbo will put twelve of the country's most passionate dessert makers to the test on Zumbo's Just Desserts. They will be joined by Rachel Khoo.\r\n\r\n\r\nComplete name                            : Zumbo's Just Desserts - S01E01 - Reflective Dessert.mp4\r\nFormat                                   : MPEG-4\r\nFormat profile                           : Base Media / Version 2\r\nCodec ID                                 : mp42 (mp42/isom/avc1)\r\nFile size                                : 486 MiB\r\nDuration                                 : 1h 1mn\r\nOverall bit rate mode                    : Variable\r\nOverall bit rate                         : 1 110 Kbps\r\n\r\nVideo\r\nID                                       : 2\r\nFormat                                   : AVC\r\nFormat/Info                              : Advanced Video Codec\r\nFormat profile                           :   \r\nFormat settings, CABAC                   : Yes\r\nFormat settings, ReFrames                : 3 frames\r\nCodec ID                                 : avc1\r\nCodec ID/Info                            : Advanced Video Coding\r\nDuration                                 : 1h 1mn\r\nBit rate mode                            : Variable\r\nBit rate                                 : 978 Kbps\r\nMaximum bit rate                         : 1 000 Kbps\r\nWidth                                    : 720 pixels\r\nHeight                                   : 404 pixels\r\nDisplay aspect ratio                     : 16:9\r\nOriginal display aspect ratio            : 16:9\r\nFrame rate mode                          : Constant\r\nFrame rate                               : 25.000 fps\r\nStandard                                 : PAL\r\nColor space                              : YUV\r\nChroma subsampling                       : 4:2:0\r\nBit depth                                : 8 bits\r\nScan type                                : Progressive\r\nBits/(Pixel*Frame)                       : 0.135\r\nStream size                              : 428 MiB (88%)\r\nWriting library                          : x264 core 112\r\nColor range                              : Limited\r\nColor primaries                          : BT.601 PAL\r\nTransfer characteristics                 : BT.470 System B, BT.470 System G\r\nMatrix coefficients                      : BT.601\r\n\r\nAudio\r\nID                                       : 1\r\nFormat                                   : AAC\r\nFormat/Info                              : Advanced Audio Codec\r\nFormat profile                           : LC\r\nCodec ID                                 : 40\r\nDuration                                 : 1h 1mn\r\nBit rate mode                            : Variable\r\nBit rate                                 : 128 Kbps\r\nMaximum bit rate                         : 576 Kbps\r\nChannel(s)                               : 2 channels\r\nChannel positions                        : Front: L R\r\nSampling rate                            : 48.0 KHz\r\nFrame rate                               : 46.875 fps (1024 spf)\r\nCompression mode                         : Lossy\r\nStream size                              : 56.0 MiB (12%)","torrent":{"xt":"urn:btih:4584b2af90f8e3a740b802b1391157d3358b864b","amp;dn":"Zumbo%27s+Just+Desserts+-+S01E01+-+Reflective+Dessert","amp;tr":["udp%3A%2F%2Ftracker.leechers-paradise.org%3A6969","udp%3A%2F%2Fzer0day.ch%3A1337","udp%3A%2F%2Fopen.demonii.com%3A1337","udp%3A%2F%2Ftracker.coppersurfer.tk%3A6969","udp%3A%2F%2Fexodus.desync.com%3A6969"],"infoHash":"4584b2af90f8e3a740b802b1391157d3358b864b","infoHashBuffer":{"type":"Buffer","data":[69,132,178,175,144,248,227,167,64,184,2,177,57,17,87,211,53,139,134,75]},"announce":[],"urlList":[]}}